<mxfile host="65bd71144e">
    <diagram id="cB6HX_7xUs5vujDKLvnG" name="Page-1">
        <mxGraphModel dx="2964" dy="1542" grid="1" gridSize="10" guides="1" tooltips="1" connect="1" arrows="1" fold="1" page="1" pageScale="1" pageWidth="1300" pageHeight="800" math="0" shadow="0">
            <root>
                <mxCell id="0"/>
                <mxCell id="1" parent="0"/>
                <mxCell id="45" value="" style="rounded=0;whiteSpace=wrap;html=1;fillColor=#f5f5f5;strokeColor=#666666;fontColor=#333333;" vertex="1" parent="1">
                    <mxGeometry width="1300" height="800" as="geometry"/>
                </mxCell>
                <mxCell id="8" value="tb_gpt_assistente" style="swimlane;childLayout=stackLayout;horizontal=1;startSize=30;horizontalStack=0;rounded=0;fontSize=14;fontStyle=0;strokeWidth=2;resizeParent=0;resizeLast=1;shadow=1;dashed=0;align=center;swimlaneLine=1;fillColor=#dae8fc;strokeColor=#6c8ebf;gradientColor=none;fontFamily=Roboto Mono;fontSource=https%3A%2F%2Ffonts.googleapis.com%2Fcss%3Ffamily%3DRoboto%2BMono;movable=0;resizable=0;rotatable=0;deletable=0;editable=0;connectable=0;" parent="1" vertex="1">
                    <mxGeometry x="997" y="339" width="250" height="160" as="geometry"/>
                </mxCell>
                <mxCell id="9" value="+ id_assistente : int (pk)&#10;+ gpt_codigo : str&#10;+ alias_str_numero : str&#10;+ descricao : str" style="align=left;strokeColor=none;fillColor=none;spacingLeft=4;fontSize=12;verticalAlign=top;resizable=0;rotatable=0;part=1;fontFamily=Roboto Mono;1,100..700&amp;display=swap;fontSource=https%3A%2F%2Ffonts.googleapis.com%2Fcss%3Ffamily%3DRoboto%2BMono;movable=0;deletable=0;editable=0;connectable=0;" parent="8" vertex="1">
                    <mxGeometry y="30" width="250" height="130" as="geometry"/>
                </mxCell>
                <mxCell id="12" value="tb_metrica_uso" style="swimlane;childLayout=stackLayout;horizontal=1;startSize=30;horizontalStack=0;rounded=0;fontSize=14;fontStyle=0;strokeWidth=2;resizeParent=0;resizeLast=1;shadow=1;dashed=0;align=center;swimlaneLine=1;fillColor=#dae8fc;strokeColor=#6c8ebf;gradientColor=none;fontFamily=Roboto Mono;fontSource=https%3A%2F%2Ffonts.googleapis.com%2Fcss%3Ffamily%3DRoboto%2BMono;movable=0;resizable=0;rotatable=0;deletable=0;editable=0;connectable=0;" parent="1" vertex="1">
                    <mxGeometry x="275" y="84" width="250" height="160" as="geometry"/>
                </mxCell>
                <mxCell id="13" value="+ id_metrica_uso : int (pk)&#10;+ professor_id : int (fk)&#10;+ serie_ensino_id : int (fk)&#10;+ dt_uso : timestamp&#10;" style="align=left;strokeColor=none;fillColor=none;spacingLeft=4;fontSize=12;verticalAlign=top;resizable=0;rotatable=0;part=1;fontFamily=Roboto Mono;1,100..700&amp;display=swap;fontSource=https%3A%2F%2Ffonts.googleapis.com%2Fcss%3Ffamily%3DRoboto%2BMono;movable=0;deletable=0;editable=0;connectable=0;" parent="12" vertex="1">
                    <mxGeometry y="30" width="250" height="130" as="geometry"/>
                </mxCell>
                <mxCell id="27" value="" style="group;movable=0;resizable=0;rotatable=0;deletable=0;editable=0;connectable=0;" parent="1" vertex="1" connectable="0">
                    <mxGeometry x="641" y="40" width="540" height="90" as="geometry"/>
                </mxCell>
                <mxCell id="15" value="tb_serie_ensino" style="swimlane;childLayout=stackLayout;horizontal=1;startSize=30;horizontalStack=0;rounded=0;fontSize=14;fontStyle=0;strokeWidth=2;resizeParent=0;resizeLast=1;shadow=1;dashed=0;align=center;swimlaneLine=1;fillColor=#dae8fc;strokeColor=#6c8ebf;gradientColor=none;fontFamily=Roboto Mono;fontSource=https%3A%2F%2Ffonts.googleapis.com%2Fcss%3Ffamily%3DRoboto%2BMono;movable=0;resizable=0;rotatable=0;deletable=0;editable=0;connectable=0;" parent="27" vertex="1">
                    <mxGeometry x="302.40000000000003" width="237.60000000000002" height="90" as="geometry"/>
                </mxCell>
                <mxCell id="16" value="+ id_serie_ensino : int (pk)&#10;+ gpt_assistente_id : int (fk)&#10;+ alias_str_numero : str&#10;" style="align=left;strokeColor=none;fillColor=none;spacingLeft=4;fontSize=12;verticalAlign=top;resizable=0;rotatable=0;part=1;fontFamily=Roboto Mono;1,100..700&amp;display=swap;fontSource=https%3A%2F%2Ffonts.googleapis.com%2Fcss%3Ffamily%3DRoboto%2BMono;movable=0;deletable=0;editable=0;connectable=0;" parent="15" vertex="1">
                    <mxGeometry y="30" width="237.60000000000002" height="60" as="geometry"/>
                </mxCell>
                <mxCell id="19" style="edgeStyle=none;html=1;exitX=1;exitY=0.5;exitDx=0;exitDy=0;entryX=0;entryY=0;entryDx=0;entryDy=0;endArrow=none;endFill=0;dashed=1;movable=0;resizable=0;rotatable=0;deletable=0;editable=0;connectable=0;" parent="27" source="17" target="16" edge="1">
                    <mxGeometry relative="1" as="geometry"/>
                </mxCell>
                <mxCell id="17" value="&lt;ul&gt;&lt;li&gt;6 (sexto registro)&lt;/li&gt;&lt;li&gt;6 # para o 4 Â° Ano Ensino Fundamental&lt;/li&gt;&lt;/ul&gt;" style="rounded=1;whiteSpace=wrap;html=1;align=left;movable=0;resizable=0;rotatable=0;deletable=0;editable=0;connectable=0;" parent="27" vertex="1">
                    <mxGeometry width="280.8" height="60" as="geometry"/>
                </mxCell>
                <mxCell id="30" value="" style="group;movable=0;resizable=0;rotatable=0;deletable=0;editable=0;connectable=0;" parent="1" vertex="1" connectable="0">
                    <mxGeometry x="100" y="389" width="410" height="100" as="geometry"/>
                </mxCell>
                <mxCell id="6" value="tb_professor" style="swimlane;childLayout=stackLayout;horizontal=1;startSize=30;horizontalStack=0;rounded=0;fontSize=14;fontStyle=0;strokeWidth=2;resizeParent=0;resizeLast=1;shadow=1;dashed=0;align=center;swimlaneLine=1;fillColor=#dae8fc;strokeColor=#6c8ebf;gradientColor=none;fontFamily=Roboto Mono;fontSource=https%3A%2F%2Ffonts.googleapis.com%2Fcss%3Ffamily%3DRoboto%2BMono;movable=0;resizable=0;rotatable=0;deletable=0;editable=0;connectable=0;" parent="30" vertex="1">
                    <mxGeometry x="200" width="210" height="100" as="geometry"/>
                </mxCell>
                <mxCell id="7" value="+ id_professor : int (pk)&#10;+ numero_telefone : str&#10;+ email : str" style="align=left;strokeColor=none;fillColor=none;spacingLeft=4;fontSize=12;verticalAlign=top;resizable=0;rotatable=0;part=1;fontFamily=Roboto Mono;1,100..700&amp;display=swap;fontSource=https%3A%2F%2Ffonts.googleapis.com%2Fcss%3Ffamily%3DRoboto%2BMono;movable=0;deletable=0;editable=0;connectable=0;" parent="6" vertex="1">
                    <mxGeometry y="30" width="210" height="70" as="geometry"/>
                </mxCell>
                <mxCell id="24" style="edgeStyle=none;html=1;exitX=1;exitY=0.5;exitDx=0;exitDy=0;entryX=0.01;entryY=0.143;entryDx=0;entryDy=0;endArrow=none;endFill=0;dashed=1;entryPerimeter=0;movable=0;resizable=0;rotatable=0;deletable=0;editable=0;connectable=0;" parent="30" source="25" target="7" edge="1">
                    <mxGeometry relative="1" as="geometry">
                        <mxPoint x="20.000000000000455" y="30" as="targetPoint"/>
                    </mxGeometry>
                </mxCell>
                <mxCell id="25" value="&lt;ul&gt;&lt;li&gt;1 (primero registro)&lt;/li&gt;&lt;li&gt;558198884444&lt;/li&gt;&lt;li&gt;meuemail@gmail.com&lt;/li&gt;&lt;/ul&gt;" style="rounded=1;whiteSpace=wrap;html=1;align=left;movable=0;resizable=0;rotatable=0;deletable=0;editable=0;connectable=0;" parent="30" vertex="1">
                    <mxGeometry width="180" height="80" as="geometry"/>
                </mxCell>
                <mxCell id="33" value="" style="group;movable=0;resizable=0;rotatable=0;deletable=0;editable=0;connectable=0;" parent="1" vertex="1" connectable="0">
                    <mxGeometry x="21" y="619" width="498" height="100" as="geometry"/>
                </mxCell>
                <mxCell id="2" value="tb_gpt_thread" style="swimlane;childLayout=stackLayout;horizontal=1;startSize=30;horizontalStack=0;rounded=0;fontSize=14;fontStyle=0;strokeWidth=2;resizeParent=0;resizeLast=1;shadow=1;dashed=0;align=center;swimlaneLine=1;fillColor=#dae8fc;strokeColor=#6c8ebf;gradientColor=none;fontFamily=Roboto Mono;fontSource=https%3A%2F%2Ffonts.googleapis.com%2Fcss%3Ffamily%3DRoboto%2BMono;movable=0;resizable=0;rotatable=0;deletable=0;editable=0;connectable=0;" parent="33" vertex="1">
                    <mxGeometry x="288" width="210" height="100" as="geometry"/>
                </mxCell>
                <mxCell id="3" value="+ id_thread : int (pk)&#10;+ professor_id : int (fk)&#10;+ thread_codigo : str" style="align=left;strokeColor=none;fillColor=none;spacingLeft=4;fontSize=12;verticalAlign=top;resizable=0;rotatable=0;part=1;fontFamily=Roboto Mono;1,100..700&amp;display=swap;fontSource=https%3A%2F%2Ffonts.googleapis.com%2Fcss%3Ffamily%3DRoboto%2BMono;movable=0;deletable=0;editable=0;connectable=0;" parent="2" vertex="1">
                    <mxGeometry y="30" width="210" height="70" as="geometry"/>
                </mxCell>
                <mxCell id="28" value="&lt;ul&gt;&lt;li&gt;1 (primero registro)&lt;/li&gt;&lt;li&gt;2 (id do professor)&lt;/li&gt;&lt;li&gt;thread_fyA5T6Zgg98kD6z9Ut4k1mAP&lt;/li&gt;&lt;/ul&gt;" style="rounded=1;whiteSpace=wrap;html=1;align=left;movable=0;resizable=0;rotatable=0;deletable=0;editable=0;connectable=0;" parent="33" vertex="1">
                    <mxGeometry width="270" height="80" as="geometry"/>
                </mxCell>
                <mxCell id="29" style="edgeStyle=none;html=1;exitX=1;exitY=0.5;exitDx=0;exitDy=0;entryX=0;entryY=0.129;entryDx=0;entryDy=0;endArrow=none;endFill=0;dashed=1;entryPerimeter=0;movable=0;resizable=0;rotatable=0;deletable=0;editable=0;connectable=0;" parent="33" source="28" target="3" edge="1">
                    <mxGeometry relative="1" as="geometry">
                        <mxPoint x="270.0999999999999" y="40.00999999999999" as="targetPoint"/>
                    </mxGeometry>
                </mxCell>
                <mxCell id="34" value="&lt;ul&gt;&lt;li&gt;1 (primero registro)&lt;/li&gt;&lt;li&gt;1 (professor com id 1)&lt;/li&gt;&lt;li&gt;6&amp;nbsp;&lt;/li&gt;&lt;li&gt;2024-10-01 14:48:05 169&lt;/li&gt;&lt;/ul&gt;" style="rounded=1;whiteSpace=wrap;html=1;align=left;movable=0;resizable=0;rotatable=0;deletable=0;editable=0;connectable=0;" parent="1" vertex="1">
                    <mxGeometry x="55" y="97" width="200" height="100" as="geometry"/>
                </mxCell>
                <mxCell id="35" style="edgeStyle=none;html=1;exitX=1;exitY=0.5;exitDx=0;exitDy=0;entryX=0;entryY=0.25;entryDx=0;entryDy=0;endArrow=none;endFill=0;dashed=1;movable=0;resizable=0;rotatable=0;deletable=0;editable=0;connectable=0;" parent="1" source="34" target="13" edge="1">
                    <mxGeometry relative="1" as="geometry">
                        <mxPoint x="257.0999999999999" y="124.00999999999999" as="targetPoint"/>
                    </mxGeometry>
                </mxCell>
                <mxCell id="39" style="edgeStyle=none;html=1;exitX=1;exitY=0.5;exitDx=0;exitDy=0;entryX=0;entryY=0.392;entryDx=0;entryDy=0;endArrow=none;endFill=0;dashed=1;entryPerimeter=0;movable=0;resizable=0;rotatable=0;deletable=0;editable=0;connectable=0;" edge="1" parent="1" source="40" target="9">
                    <mxGeometry relative="1" as="geometry">
                        <mxPoint x="972.0999999999999" y="419.0100000000002" as="targetPoint"/>
                    </mxGeometry>
                </mxCell>
                <mxCell id="40" value="&lt;ul&gt;&lt;li&gt;1 (primero registro)&lt;/li&gt;&lt;li&gt;asst_RybHhABngVJoOdkFmlJLGpkW&lt;/li&gt;&lt;li&gt;#005-Assis_Histo_4_s_fund&lt;/li&gt;&lt;li&gt;Assintente para Professores de HitÃ³ria da quarta sÃ©ria do ensino fundamental.&lt;/li&gt;&lt;/ul&gt;" style="rounded=1;whiteSpace=wrap;html=1;align=left;movable=0;resizable=0;rotatable=0;deletable=0;editable=0;connectable=0;" vertex="1" parent="1">
                    <mxGeometry x="581" y="365" width="375" height="110" as="geometry"/>
                </mxCell>
                <mxCell id="41" style="edgeStyle=none;html=1;entryX=0.471;entryY=0;entryDx=0;entryDy=0;entryPerimeter=0;endArrow=ERoneToMany;endFill=0;movable=0;resizable=0;rotatable=0;deletable=0;editable=0;connectable=0;" edge="1" parent="1" source="7" target="2">
                    <mxGeometry relative="1" as="geometry"/>
                </mxCell>
                <mxCell id="42" style="edgeStyle=none;html=1;entryX=0.5;entryY=0;entryDx=0;entryDy=0;endArrow=none;endFill=0;startArrow=ERoneToMany;startFill=0;movable=0;resizable=0;rotatable=0;deletable=0;editable=0;connectable=0;" edge="1" parent="1" source="13" target="6">
                    <mxGeometry relative="1" as="geometry"/>
                </mxCell>
                <mxCell id="43" style="edgeStyle=none;html=1;entryX=1;entryY=0.5;entryDx=0;entryDy=0;endArrow=ERoneToMany;endFill=0;startArrow=none;startFill=0;exitX=0.25;exitY=1;exitDx=0;exitDy=0;movable=0;resizable=0;rotatable=0;deletable=0;editable=0;connectable=0;" edge="1" parent="1" source="16" target="13">
                    <mxGeometry relative="1" as="geometry">
                        <Array as="points">
                            <mxPoint x="1003" y="179"/>
                        </Array>
                    </mxGeometry>
                </mxCell>
                <mxCell id="44" style="edgeStyle=none;html=1;entryX=0.5;entryY=0;entryDx=0;entryDy=0;startArrow=ERmandOne;startFill=0;endArrow=ERmandOne;endFill=0;exitX=0.75;exitY=1;exitDx=0;exitDy=0;movable=0;resizable=0;rotatable=0;deletable=0;editable=0;connectable=0;" edge="1" parent="1" source="16" target="8">
                    <mxGeometry relative="1" as="geometry"/>
                </mxCell>
            </root>
        </mxGraphModel>
    </diagram>
</mxfile>